<?xml version="1.0" encoding="UTF-8" standalone="no"?>
<!-- Created with Inkscape (http://www.inkscape.org/) -->

<svg
   xmlns:dc="http://purl.org/dc/elements/1.1/"
   xmlns:cc="http://creativecommons.org/ns#"
   xmlns:rdf="http://www.w3.org/1999/02/22-rdf-syntax-ns#"
   xmlns:svg="http://www.w3.org/2000/svg"
   xmlns="http://www.w3.org/2000/svg"
   xmlns:xlink="http://www.w3.org/1999/xlink"
   xmlns:sodipodi="http://sodipodi.sourceforge.net/DTD/sodipodi-0.dtd"
   xmlns:inkscape="http://www.inkscape.org/namespaces/inkscape"
   version="1.1"
   id="svg4516"
   xml:space="preserve"
   width="3413.3333"
   height="1920"
   viewBox="0 0 3413.3333 1920"
   sodipodi:docname="background alterings.svg"
   inkscape:version="0.92.1 r15371"><metadata
     id="metadata4522"><rdf:RDF><cc:Work
         rdf:about=""><dc:format>image/svg+xml</dc:format><dc:type
           rdf:resource="http://purl.org/dc/dcmitype/StillImage" /><dc:title></dc:title></cc:Work></rdf:RDF></metadata><defs
     id="defs4520"><linearGradient
       inkscape:collect="always"
       id="linearGradient5171"><stop
         style="stop-color:#1d4350;stop-opacity:1"
         offset="0"
         id="stop5167" /><stop
         style="stop-color:#a43931;stop-opacity:1"
         offset="1"
         id="stop5169" /></linearGradient><linearGradient
       inkscape:collect="always"
       id="linearGradient5159"><stop
         style="stop-color:#eb5757;stop-opacity:1"
         offset="0"
         id="stop5155" /><stop
         style="stop-color:#000000;stop-opacity:1"
         offset="1"
         id="stop5157" /></linearGradient><linearGradient
       inkscape:collect="always"
       id="linearGradient5125"><stop
         style="stop-color:#0f0c29;stop-opacity:1"
         offset="0"
         id="stop5139" /><stop
         style="stop-color:#24243e;stop-opacity:1"
         offset="1"
         id="stop5137" /></linearGradient><linearGradient
       x1="0"
       y1="0"
       x2="1"
       y2="0"
       gradientUnits="userSpaceOnUse"
       gradientTransform="matrix(2560.55,0,0,-2560.55,0,720)"
       spreadMethod="pad"
       id="linearGradient4542"><stop
         style="stop-opacity:1;stop-color:#da007f"
         offset="0"
         id="stop4538" /><stop
         style="stop-opacity:1;stop-color:#660e80"
         offset="1"
         id="stop4540" /></linearGradient><linearGradient
       inkscape:collect="always"
       xlink:href="#linearGradient5125"
       id="linearGradient5141"
       gradientUnits="userSpaceOnUse"
       x1="-2546.644"
       y1="-689.9621"
       x2="-442.12848"
       y2="-679.94946" /><linearGradient
       inkscape:collect="always"
       xlink:href="#linearGradient5125"
       id="linearGradient5149"
       gradientUnits="userSpaceOnUse"
       gradientTransform="translate(-6.2451172e-5,-3.9453124e-6)"
       x1="-2521.6125"
       y1="-699.97473"
       x2="-442.12848"
       y2="-679.94946" /><linearGradient
       inkscape:collect="always"
       xlink:href="#linearGradient5159"
       id="linearGradient5161"
       x1="-5465.0581"
       y1="-831.90051"
       x2="-3200.8674"
       y2="-1490.3409"
       gradientUnits="userSpaceOnUse"
       gradientTransform="matrix(-1,0,0,1,6.6406251e-6,-7.8125026e-8)" /><linearGradient
       inkscape:collect="always"
       xlink:href="#linearGradient5171"
       id="linearGradient5173"
       x1="-5074.04"
       y1="-2244.96"
       x2="-1934.2678"
       y2="-2110.4399"
       gradientUnits="userSpaceOnUse" /><linearGradient
       inkscape:collect="always"
       xlink:href="#linearGradient5171"
       id="linearGradient5218"
       gradientUnits="userSpaceOnUse"
       x1="-4901.3223"
       y1="-2267.4883"
       x2="-3396.113"
       y2="-2125.4587"
       gradientTransform="translate(3.193743e-5,2.3879354e-5)" /><linearGradient
       inkscape:collect="always"
       xlink:href="#linearGradient5171"
       id="linearGradient5242"
       gradientUnits="userSpaceOnUse"
       gradientTransform="matrix(1.1764706,0,0,1.1628731,725.33637,352.63523)"
       x1="-4901.3223"
       y1="-2267.4883"
       x2="-3396.113"
       y2="-2125.4587" /></defs><sodipodi:namedview
     pagecolor="#ffffff"
     bordercolor="#666666"
     borderopacity="1"
     objecttolerance="10"
     gridtolerance="10"
     guidetolerance="10"
     inkscape:pageopacity="0"
     inkscape:pageshadow="2"
     inkscape:window-width="640"
     inkscape:window-height="480"
     id="namedview4518"
     showgrid="false"
     inkscape:zoom="0.14981067"
     inkscape:cx="-6387.0392"
     inkscape:cy="2410.4026"
     inkscape:current-layer="g5240" /><g
     id="g4524"
     inkscape:groupmode="layer"
     inkscape:label="pattern-3107886"
     transform="matrix(1.3333333,0,0,-1.3333333,0,1920)"><g
       id="g4528"><g
         id="g4534"><g
           id="g4536"><path
             inkscape:connector-curvature="0"
             id="path4544"
             style="fill:url(#linearGradient4542);stroke:none"
             d="M 0,0 H 2560 V 1440 H 0 Z" /></g></g></g><g
       id="g4554"
       transform="translate(-3349.6626,-326.00113)"><path
         d="m 0,0 -175,-279.99 -41.641,-66.62 -56.34,-90.14 -41.639,-66.62 -0.01,-0.01 -32.5,-52.01 -23.82,-38.12 -0.01,-0.01 -5.87,-9.38 -35.761,-57.23 -0.01,-0.01 -4.409,-7.05 -7.631,-12.21 -44.29,-70.87 -0.009,-0.011 -24.05,-38.469 -17.591,-28.15 -5.31,-8.501 -30.999,-49.589 -20.031,-32.05 -2.87,-4.59 -31,-49.601 -7.769,-12.43 -15.14,-24.219 -31.001,-49.6 -10.199,-16.32 -12.701,-20.32 -28.94,-46.3 -2.06,-3.3 -22.909,-36.65 -30.991,-49.59 -0.389,-0.62 -22.52,-36.031 -19.111,-30.579 -11.88,-19.011 -22.909,-36.648 -21.56,-34.491 -0.011,-0.01 -9.43,-15.09 -22.909,-36.66 -6.811,-10.901 h 5.43 10.361 50.279 2.811 l -1.6,1.939 26.319,42.121 4.68,7.48 22.9,36.649 14.051,22.471 16.949,27.12 22.911,36.65 16.49,26.391 14.5,23.199 22.909,36.65 4.221,6.76 26.78,42.84 22.899,36.64 6.66,10.67 0.011,0.01 24.33,38.91 17.299,27.701 0.01,0.01 5.6,8.95 31.001,49.59 19.73,31.59 0.009,0.01 5.191,2.59 -2.031,2.461 30.991,49.589 7.49,11.98 15.419,24.67 30.79,49.26 3.831,6.119 6.3,10.091 33.869,54.19 7.771,12.43 21.929,35.08 34.411,55.06 5.77,9.23 29.69,47.51 6.179,9.88 56.34,90.14 0.01,0.011 41.631,66.618 56.34,90.141 41.639,66.62 L 66.059,0 Z"
         style="fill:#530157;fill-opacity:1;fill-rule:nonzero;stroke:none"
         id="path4556"
         inkscape:connector-curvature="0" /></g><rect
       style="opacity:1;fill:url(#linearGradient5141);fill-opacity:1;fill-rule:nonzero;stroke:#00339c;stroke-width:6.86788177;stroke-linecap:butt;stroke-linejoin:miter;stroke-miterlimit:4;stroke-dasharray:none;stroke-dashoffset:0;stroke-opacity:1"
       id="rect5119"
       width="2553.2229"
       height="1440"
       x="-2553.2229"
       y="-1440"
       transform="scale(1,-1)" /><rect
       style="opacity:1;fill:url(#linearGradient5161);fill-opacity:1;fill-rule:nonzero;stroke:#00339c;stroke-width:6.58699036;stroke-linecap:butt;stroke-linejoin:miter;stroke-miterlimit:4;stroke-dasharray:none;stroke-dashoffset:0;stroke-opacity:1"
       id="rect5153"
       width="2553.2231"
       height="1440"
       x="2553.2229"
       y="-1440"
       transform="scale(-1)" /><g
       style="opacity:1;fill:#000000;fill-opacity:1"
       transform="translate(-3553.2793,-325.52426)"
       id="g5179"><path
         inkscape:connector-curvature="0"
         id="path5177"
         style="fill:#000000;fill-opacity:1;fill-rule:nonzero;stroke:none;"
         d="m 0,0 -316.2,-505.91 -41.64,-66.62 -0.98,-1.57 -22.91,-36.65 -30.989,-49.59 -1.461,-2.33 -21.45,-34.321 -20.18,-32.299 -0.009,-0.01 -10.811,-17.28 -22.91,-36.66 -22.609,-36.189 -0.011,-0.011 -13.751,-6.87 -36.159,43.92 -9.28,11.28 27.18,43.48 3.82,6.111 22.91,36.66 29.61,47.368 2.28,1.141 -0.9,1.08 22.91,36.65 17.35,27.75 13.64,21.84 22.91,36.65 L -89.39,0 h -66.07 l -291.74,-466.77 -22.9,-36.649 -31,-49.591 -22.9,-36.64 -18.27,-29.23 -12.73,-20.37 -22.91,-36.65 -6,-9.6 -25,-40 -16.04,19.49 -26.73,32.46 -8.05,9.77 31,49.59 22.91,36.66 31,49.59 22.9,36.65 31,49.59 22.901,36.65 L -244.85,0 h -66.06 l -224.659,-359.44 -22.901,-36.65 -30.999,-49.59 -22.901,-36.65 -31,-49.59 -22.91,-36.66 -31,-49.589 -50.81,61.709 31.001,49.6 22.899,36.65 31,49.6 22.91,36.64 30.99,49.59 22.91,36.65 L -400.29,0 h -66.06 l -157.58,-252.12 -22.91,-36.65 -30.99,-49.589 -22.91,-36.651 -31,-49.59 -22.91,-36.66 -30.99,-49.59 -50.82,61.72 31.001,49.59 22.909,36.66 30.99,49.59 22.91,36.65 30.99,49.59 22.91,36.65 L -555.74,0 h -66.07 L -712.31,-144.79 -831.53,0 h -53.08 l 149.4,-181.44 -31,-49.59 L -956.43,0 h -53.079 l 220.399,-267.68 -31,-49.59 L -1081.35,0 h -53.09 l 291.42,-353.92 -31,-49.6 L -1180,-31.9 v -64.46 l 283.08,-343.8 37.56,-45.61 50.81,-61.721 37.56,-45.609 50.81,-61.71 30.9,-37.53 6.65,-8.08 20.081,-24.38 30.739,-37.34 5.42,-6.58 26.72,-32.46 5.42,-6.57 30.74,-37.35 20.08,-24.369 -10.36,-16.581 -0.01,-0.01 -20.63,-33.01 -13.25,16.089 -26.719,32.451 -10.851,13.18 -25.31,30.74 -12.25,14.869 -14.48,17.591 -36.16,43.92 -0.18,0.21 -26.54,32.25 -11.01,13.36 -50.81,61.71 -37.55,45.61 -50.82,61.72 -37.56,45.61 -252.08,306.16 v -64.481 l 229.17,-278.329 37.56,-45.61 50.82,-61.72 37.551,-45.61 47.109,-57.22 3.7,-4.49 23.03,-27.97 14.53,-17.64 21.63,-26.28 26.73,-32.451 2.45,-2.989 33.71,-40.931 3.85,-4.679 22.87,-27.78 27.95,-33.94 -12.79,-20.47 -0.01,-0.01 -18.199,-29.11 -11.681,14.18 -36.16,43.92 -2.97,3.62 -23.75,28.84 -13.81,16.77 -22.35,27.15 -26.73,32.45 -1.74,2.12 -34.42,41.8 -3.13,3.81 -23.59,28.65 -27.23,33.059 -37.55,45.611 -50.809,61.72 -37.561,45.61 -198.18,240.69 v -64.47 l 175.27,-212.87 37.56,-45.61 50.82,-61.72 37.55,-45.61 12.519,-15.201 26.721,-32.459 11.57,-14.05 24.6,-29.87 12.96,-15.74 13.761,-16.72 36.159,-43.91 0.89,-1.09 25.84,-31.37 11.72,-14.24 24.44,-29.68 26.38,-32.04 -0.54,-0.86 -30.46,-48.73 -19.55,23.74 -26.73,32.461 -4.54,5.509 -31.62,38.41 -5.94,7.211 -20.78,25.238 -30.03,36.481 -6.13,7.44 -26.73,32.461 -4.69,5.698 -31.47,38.222 -19.35,23.499 -7.37,8.96 -30.18,36.65 -50.82,61.71 -37.56,45.619 -144.27,175.221 v -64.47 l 121.37,-147.401 37.56,-45.609 50.811,-61.72 15.479,-18.799 22.08,-26.811 4.651,-5.64 36.159,-43.92 10,-12.151 16.72,-20.309 20.831,-25.301 15.329,-18.619 26.73,-32.46 8.76,-10.64 27.4,-33.269 10.161,-12.341 16.56,-20.12 34.259,-41.6 -2.98,-4.76 -28.02,-44.839 -17.99,21.849 -32.83,39.87 -3.33,4.05 -26.73,32.45 -7.5,9.12 -28.66,34.799 -22.16,26.911 -4.559,5.55 -32.991,40.06 -3.17,3.86 -26.73,32.46 -20.91,25.4 -15.25,18.51 -22.3,27.09 -4.42,5.369 -46.399,56.351 -37.561,45.619 -90.37,109.751 v -64.48 l 67.461,-81.929 37.559,-45.611 31.69,-38.49 -81.07,-40.52 -55.64,-27.8 v -45.82 l 14,7 129.99,64.96 19.45,9.72 29.95,-36.38 6.21,-7.54 -15.89,-7.94 -96.06,-48 -87.65,-43.801 v -45.819 l 46.01,22.991 0.01,0.01 96.041,47.989 0.01,0.01 84.26,42.1 17.871,-21.71 18.289,-22.21 -46.77,-23.37 -129.98,-64.95 -0.01,-0.01 -85.73,-42.84 v -45.811 l 44.08,22.031 0.01,0.01 129.99,64.95 0.01,0.01 96.04,47.991 0.011,0.01 19.069,9.531 36.16,-43.92 -111.56,-55.75 -0.01,-0.01 -96.06,-48 -117.74,-58.83 v -45.82 l 76.101,38.03 96.059,48 129.99,64.96 49.95,24.96 18.03,-21.901 18.13,-22.019 -46.37,-23.17 -96.08,-48.009 -129.99,-64.961 -96.06,-47.999 -19.76,-9.881 v -21.73 -24.08 l 74.18,37.071 129.981,64.948 0.009,0.011 96.06,48 0.01,0.01 114.74,57.33 5.97,-7.24 -47.05,-75.27 -129.99,-64.96 -96.079,-48.01 -74.661,-37.31 h 51.34 40.34 l 37.42,18.7 129.98,64.951 -52.281,-83.651 h 8.951 57.11 l 25.94,41.5 56.35,90.16 30.18,48.28 11.46,18.34 11.45,18.319 31.001,49.59 13.889,22.231 9.01,14.42 31,49.59 1.63,2.61 21.28,34.04 30.99,49.59 4.071,6.51 18.839,30.141 22.79,36.478 0.01,0.01 8.2,13.111 22.9,36.64 25.24,40.391 5.76,9.209 22.91,36.649 12.97,20.751 0.01,0.01 18.01,28.84 22.911,36.64 15.409,24.66 15.58,24.93 22.91,36.65 3.15,5.04 56.34,90.14 41.64,66.62 0.01,0.01 L 66.06,0 Z" /></g><g
       transform="translate(-3179.7425,-333.08113)"
       id="g5183"><path
         inkscape:connector-curvature="0"
         id="path5181"
         style="fill:#530157;fill-opacity:1;fill-rule:nonzero;stroke:none"
         d="m 0,0 -175,-279.99 -41.641,-66.62 -56.34,-90.14 -41.639,-66.62 -0.01,-0.01 -32.5,-52.01 -23.82,-38.12 -0.01,-0.01 -5.87,-9.38 -35.761,-57.23 -0.01,-0.01 -4.409,-7.05 -7.631,-12.21 -44.29,-70.87 -0.009,-0.011 -24.05,-38.469 -17.591,-28.15 -5.31,-8.501 -30.999,-49.589 -20.031,-32.05 -2.87,-4.59 -31,-49.601 -7.769,-12.43 -15.14,-24.219 -31.001,-49.6 -10.199,-16.32 -12.701,-20.32 -28.94,-46.3 -2.06,-3.3 -22.909,-36.65 -30.991,-49.59 -0.389,-0.62 -22.52,-36.031 -19.111,-30.579 -11.88,-19.011 -22.909,-36.648 -21.56,-34.491 -0.011,-0.01 -9.43,-15.09 -22.909,-36.66 -6.811,-10.901 h 5.43 10.361 50.279 2.811 l -1.6,1.939 26.319,42.121 4.68,7.48 22.9,36.649 14.051,22.471 16.949,27.12 22.911,36.65 16.49,26.391 14.5,23.199 22.909,36.65 4.221,6.76 26.78,42.84 22.899,36.64 6.66,10.67 0.011,0.01 24.33,38.91 17.299,27.701 0.01,0.01 5.6,8.95 31.001,49.59 19.73,31.59 0.009,0.01 5.191,2.59 -2.031,2.461 30.991,49.589 7.49,11.98 15.419,24.67 30.79,49.26 3.831,6.119 6.3,10.091 33.869,54.19 7.771,12.43 21.929,35.08 34.411,55.06 5.77,9.23 29.69,47.51 6.179,9.88 56.34,90.14 0.01,0.011 41.631,66.618 56.34,90.141 41.639,66.62 L 66.059,0 Z" /></g><g
       id="g5187"
       transform="translate(-5700.2241,2796.2809)"><path
         d="m 0,0 -175,-279.99 -41.641,-66.62 -56.34,-90.14 -41.639,-66.62 -0.01,-0.01 -32.5,-52.01 -23.82,-38.12 -0.01,-0.01 -5.87,-9.38 -35.761,-57.23 -0.01,-0.01 -4.409,-7.05 -7.631,-12.21 -44.29,-70.87 -0.009,-0.011 -24.05,-38.469 -17.591,-28.15 -5.31,-8.501 -30.999,-49.589 -20.031,-32.05 -2.87,-4.59 -31,-49.601 -7.769,-12.43 -15.14,-24.219 -31.001,-49.6 -10.199,-16.32 -12.701,-20.32 -28.94,-46.3 -2.06,-3.3 -22.909,-36.65 -30.991,-49.59 -0.389,-0.62 -22.52,-36.031 -19.111,-30.579 -11.88,-19.011 -22.909,-36.648 -21.56,-34.491 -0.011,-0.01 -9.43,-15.09 -22.909,-36.66 -6.811,-10.901 h 5.43 10.361 50.279 2.811 l -1.6,1.939 26.319,42.121 4.68,7.48 22.9,36.649 14.051,22.471 16.949,27.12 22.911,36.65 16.49,26.391 14.5,23.199 22.909,36.65 4.221,6.76 26.78,42.84 22.899,36.64 6.66,10.67 0.011,0.01 24.33,38.91 17.299,27.701 0.01,0.01 5.6,8.95 31.001,49.59 19.73,31.59 0.009,0.01 5.191,2.59 -2.031,2.461 30.991,49.589 7.49,11.98 15.419,24.67 30.79,49.26 3.831,6.119 6.3,10.091 33.869,54.19 7.771,12.43 21.929,35.08 34.411,55.06 5.77,9.23 29.69,47.51 6.179,9.88 56.34,90.14 0.01,0.011 41.631,66.618 56.34,90.141 41.639,66.62 L 66.059,0 Z"
         style="fill:#530157;fill-opacity:1;fill-rule:nonzero;stroke:none"
         id="path5185"
         inkscape:connector-curvature="0" /></g><g
       style="opacity:1;fill:#000000"
       transform="translate(-2039.6853,-339.68427)"
       id="g5191"><path
         inkscape:connector-curvature="0"
         id="path5189"
         style="opacity:1;fill:#000000;fill-opacity:1;fill-rule:nonzero;stroke:none;"
         d="m 0,0 -1111.42,-555.39 -67.861,-33.91 21.191,33.91 35.149,56.23 998.9,499.16 h -91.679 l -865.59,-432.55 56.35,90.15 L -339.771,0 h -91.68 l -551.87,-275.78 56.34,90.14 0.011,0.01 v 0.01 L -555.501,0 H -647.17 L -885.331,-119 -810.96,0 h -66.05 l -104.39,-167.02 -41.641,-66.62 -56.339,-90.14 -41.63,-66.62 -0.011,-0.01 -56.33,-90.12 v -0.01 h -0.01 v -0.01 l -41.629,-66.6 v -0.01 l -0.01,-0.01 -5.14,-8.22 -29.7,-47.51 -21.49,-34.39 v -0.01 h -0.01 v -0.01 l -18.68,-29.88 -22.961,-36.741 -6.729,-10.769 -40.181,-64.281 -9.43,-15.089 -20.269,-32.42 -21.37,-34.201 -18.81,-30.089 -3.31,-5.301 -20.031,-32.049 -2.88,-4.6 -11.309,-18.1 -19.68,-31.49 -21.96,-35.13 -1.55,-0.78 0.599,-0.74 -30.999,-49.591 -22.9,-36.659 -1.5,-2.39 -29.501,-47.201 -12.129,-19.409 -10.77,-17.231 -31.001,-49.599 -14.58,-23.32 -0.01,-0.01 v -0.01 l -8.319,-13.311 -31.001,-49.59 -2.3,-3.69 -20.599,-32.959 -31.001,-49.591 -16.539,-26.47 h 38.33 27.73 l 19.03,30.46 25.08,-30.46 h 53.08 l -55.25,67.099 30.99,49.59 96.09,-116.689 h 53.08 l -126.261,153.349 2.301,3.67 0.01,0.011 v 0.01 l 47.109,23.531 148.671,-180.571 h 53.079 l -44.9,54.53 -39.119,47.51 -80.131,97.32 50.891,25.43 20.119,-24.429 28.021,-34.031 52.93,-64.29 39.119,-47.51 44.9,-54.53 h 53.091 l -44.901,54.53 -39.12,47.51 -52.929,64.29 -39.11,47.5 -24.51,29.759 50.899,25.431 45.44,-55.19 39.111,-47.5 52.94,-64.29 39.109,-47.51 44.901,-54.53 h 53.08 l -44.901,54.53 -39.12,47.51 -52.929,64.29 -39.11,47.5 -52.94,64.29 -7.98,9.69 50.89,25.43 28.92,-35.12 52.93,-64.29 39.12,-47.5 52.93,-64.29 39.119,-47.51 44.901,-54.53 h 53.08 l -44.9,54.53 H 36.629 v 47.51 H -1073.25 l -52.931,64.29 H 36.629 v 47.5 H -1165.29 l -52.941,64.29 H 36.629 v 47.51 H -1257.35 l -5.271,6.401 115.84,57.889 H 36.629 v 47.5 h -1088.36 l 128.661,64.289 H 36.629 v 47.511 H -828 l 128.649,64.29 h 735.98 v 47.509 h -640.9 l 128.631,64.281 H 36.629 v 47.51 H -380.56 l 128.649,64.29 h 288.54 v 47.51 H -156.83 l 193.459,96.675 v 45.8 l -285.12,-142.475 -95.079,-47.51 -128.65,-64.29 -95.071,-47.51 -128.64,-64.281 -95.069,-47.509 -128.66,-64.29 -95.071,-47.511 -128.65,-64.289 -95.059,-47.5 -50.9,-25.44 -37.611,-18.791 -40.139,-20.059 -10.741,-5.37 -37.61,-18.791 -41.67,-20.818 -9.219,-4.611 -37.62,-18.8 -50.89,-25.43 -6.401,7.77 31.001,49.6 15.379,24.601 0.011,0.01 12.35,6.17 50.889,25.429 37.61,18.8 50.89,25.431 0.611,0.3 37,18.49 58.05,29.01 128.649,64.289 95.081,47.511 128.65,64.29 95.079,47.509 128.63,64.281 95.071,47.51 128.66,64.29 95.07,47.51 409.189,204.475 v 45.81 l -500.849,-250.285 -95.08,-47.51 -128.651,-64.29 -95.07,-47.51 -128.639,-64.281 -95.071,-47.509 -128.649,-64.29 -95.08,-47.511 -121.77,-60.849 -6.881,-3.44 -30.719,-15.35 -50.891,-25.43 -13.449,-6.72 -19.051,-9.51 16.11,25.78 3.68,5.88 15.84,25.35 15.15,24.24 5.561,8.89 28.49,14.24 33.859,16.919 95.08,47.511 128.651,64.29 95.08,47.509 128.63,64.281 95.07,47.51 128.659,64.29 95.071,47.51 624.919,312.285 v 45.81 l -716.59,-358.095 -95.079,-47.51 -128.651,-64.29 -95.079,-47.51 -128.631,-64.281 -95.08,-47.509 -128.649,-64.29 h -16.58 l 40.179,64.29 8.631,13.8 67.459,33.709 128.631,64.281 95.079,47.51 128.651,64.29 95.07,47.51 840.639,420.075 v 45.82 l -932.32,-465.895 -95.069,-47.51 -128.66,-64.29 -95.07,-47.51 -62.771,-31.37 19.6,31.37 29.701,47.51 7.04,11.26 0.01,0.01 v 0.01 l 106.1,53.01 95.08,47.51 L 36.629,-27.505 V 0 Z" /></g><g
       id="g5240"
       transform="matrix(0.84999999,0,0,0.85993907,-765.21597,205.89473)"><g
         id="g5253"
         transform="translate(174.91775,113.20577)"><rect
           style="opacity:1;fill:url(#linearGradient5242);fill-opacity:1;fill-rule:nonzero;stroke:#00339c;stroke-width:3.51863813;stroke-linecap:butt;stroke-linejoin:miter;stroke-miterlimit:4;stroke-dasharray:none;stroke-dashoffset:0;stroke-opacity:1"
           id="rect5165"
           width="1500"
           height="845.98962"
           x="-5101.4395"
           y="-2316.0271"
           transform="scale(1,-1)" /><g
           id="g4546"
           transform="matrix(0.58749278,0,0,0.58749278,-4408.198,2316.0271)"
           style="opacity:0.144;fill:#adccc7;fill-opacity:1"><path
             d="m 0,0 -316.2,-505.91 -41.64,-66.62 -0.98,-1.57 -22.91,-36.65 -30.989,-49.59 -1.461,-2.33 -21.45,-34.321 -20.18,-32.299 -0.009,-0.01 -10.811,-17.28 -22.91,-36.66 -22.609,-36.189 -0.011,-0.011 -13.751,-6.87 -36.159,43.92 -9.28,11.28 27.18,43.48 3.82,6.111 22.91,36.66 29.61,47.368 2.28,1.141 -0.9,1.08 22.91,36.65 17.35,27.75 13.64,21.84 22.91,36.65 L -89.39,0 h -66.07 l -291.74,-466.77 -22.9,-36.649 -31,-49.591 -22.9,-36.64 -18.27,-29.23 -12.73,-20.37 -22.91,-36.65 -6,-9.6 -25,-40 -16.04,19.49 -26.73,32.46 -8.05,9.77 31,49.59 22.91,36.66 31,49.59 22.9,36.65 31,49.59 22.901,36.65 L -244.85,0 h -66.06 l -224.659,-359.44 -22.901,-36.65 -30.999,-49.59 -22.901,-36.65 -31,-49.59 -22.91,-36.66 -31,-49.589 -50.81,61.709 31.001,49.6 22.899,36.65 31,49.6 22.91,36.64 30.99,49.59 22.91,36.65 L -400.29,0 h -66.06 l -157.58,-252.12 -22.91,-36.65 -30.99,-49.589 -22.91,-36.651 -31,-49.59 -22.91,-36.66 -30.99,-49.59 -50.82,61.72 31.001,49.59 22.909,36.66 30.99,49.59 22.91,36.65 30.99,49.59 22.91,36.65 L -555.74,0 h -66.07 L -712.31,-144.79 -831.53,0 h -53.08 l 149.4,-181.44 -31,-49.59 L -956.43,0 h -53.079 l 220.399,-267.68 -31,-49.59 L -1081.35,0 h -53.09 l 291.42,-353.92 -31,-49.6 L -1180,-31.9 v -64.46 l 283.08,-343.8 37.56,-45.61 50.81,-61.721 37.56,-45.609 50.81,-61.71 30.9,-37.53 6.65,-8.08 20.081,-24.38 30.739,-37.34 5.42,-6.58 26.72,-32.46 5.42,-6.57 30.74,-37.35 20.08,-24.369 -10.36,-16.581 -0.01,-0.01 -20.63,-33.01 -13.25,16.089 -26.719,32.451 -10.851,13.18 -25.31,30.74 -12.25,14.869 -14.48,17.591 -36.16,43.92 -0.18,0.21 -26.54,32.25 -11.01,13.36 -50.81,61.71 -37.55,45.61 -50.82,61.72 -37.56,45.61 -252.08,306.16 v -64.481 l 229.17,-278.329 37.56,-45.61 50.82,-61.72 37.551,-45.61 47.109,-57.22 3.7,-4.49 23.03,-27.97 14.53,-17.64 21.63,-26.28 26.73,-32.451 2.45,-2.989 33.71,-40.931 3.85,-4.679 22.87,-27.78 27.95,-33.94 -12.79,-20.47 -0.01,-0.01 -18.199,-29.11 -11.681,14.18 -36.16,43.92 -2.97,3.62 -23.75,28.84 -13.81,16.77 -22.35,27.15 -26.73,32.45 -1.74,2.12 -34.42,41.8 -3.13,3.81 -23.59,28.65 -27.23,33.059 -37.55,45.611 -50.809,61.72 -37.561,45.61 -198.18,240.69 v -64.47 l 175.27,-212.87 37.56,-45.61 50.82,-61.72 37.55,-45.61 12.519,-15.201 26.721,-32.459 11.57,-14.05 24.6,-29.87 12.96,-15.74 13.761,-16.72 36.159,-43.91 0.89,-1.09 25.84,-31.37 11.72,-14.24 24.44,-29.68 26.38,-32.04 -0.54,-0.86 -30.46,-48.73 -19.55,23.74 -26.73,32.461 -4.54,5.509 -31.62,38.41 -5.94,7.211 -20.78,25.238 -30.03,36.481 -6.13,7.44 -26.73,32.461 -4.69,5.698 -31.47,38.222 -19.35,23.499 -7.37,8.96 -30.18,36.65 -50.82,61.71 -37.56,45.619 -144.27,175.221 v -64.47 l 121.37,-147.401 37.56,-45.609 50.811,-61.72 15.479,-18.799 22.08,-26.811 4.651,-5.64 36.159,-43.92 10,-12.151 16.72,-20.309 20.831,-25.301 15.329,-18.619 26.73,-32.46 8.76,-10.64 27.4,-33.269 10.161,-12.341 16.56,-20.12 34.259,-41.6 -2.98,-4.76 -28.02,-44.839 -17.99,21.849 -32.83,39.87 -3.33,4.05 -26.73,32.45 -7.5,9.12 -28.66,34.799 -22.16,26.911 -4.559,5.55 -32.991,40.06 -3.17,3.86 -26.73,32.46 -20.91,25.4 -15.25,18.51 -22.3,27.09 -4.42,5.369 -46.399,56.351 -37.561,45.619 -90.37,109.751 v -64.48 l 67.461,-81.929 37.559,-45.611 31.69,-38.49 -81.07,-40.52 -55.64,-27.8 v -45.82 l 14,7 129.99,64.96 19.45,9.72 29.95,-36.38 6.21,-7.54 -15.89,-7.94 -96.06,-48 -87.65,-43.801 v -45.819 l 46.01,22.991 0.01,0.01 96.041,47.989 0.01,0.01 84.26,42.1 17.871,-21.71 18.289,-22.21 -46.77,-23.37 -129.98,-64.95 -0.01,-0.01 -85.73,-42.84 v -45.811 l 44.08,22.031 0.01,0.01 129.99,64.95 0.01,0.01 96.04,47.991 0.011,0.01 19.069,9.531 36.16,-43.92 -111.56,-55.75 -0.01,-0.01 -96.06,-48 -117.74,-58.83 v -45.82 l 76.101,38.03 96.059,48 129.99,64.96 49.95,24.96 18.03,-21.901 18.13,-22.019 -46.37,-23.17 -96.08,-48.009 -129.99,-64.961 -96.06,-47.999 -19.76,-9.881 v -21.73 -24.08 l 74.18,37.071 129.981,64.948 0.009,0.011 96.06,48 0.01,0.01 114.74,57.33 5.97,-7.24 -47.05,-75.27 -129.99,-64.96 -96.079,-48.01 -74.661,-37.31 h 51.34 40.34 l 37.42,18.7 129.98,64.951 -52.281,-83.651 h 8.951 57.11 l 25.94,41.5 56.35,90.16 30.18,48.28 11.46,18.34 11.45,18.319 31.001,49.59 13.889,22.231 9.01,14.42 31,49.59 1.63,2.61 21.28,34.04 30.99,49.59 4.071,6.51 18.839,30.141 22.79,36.478 0.01,0.01 8.2,13.111 22.9,36.64 25.24,40.391 5.76,9.209 22.91,36.649 12.97,20.751 0.01,0.01 18.01,28.84 22.911,36.64 15.409,24.66 15.58,24.93 22.91,36.65 3.15,5.04 56.34,90.14 41.64,66.62 0.01,0.01 L 66.06,0 Z"
             style="fill:#adccc7;fill-opacity:1;fill-rule:nonzero;stroke:none"
             id="path4548"
             inkscape:connector-curvature="0" /></g><g
           id="g4558"
           transform="matrix(0.58749278,0,0,0.58749278,-3622.9587,2316.0271)"
           style="opacity:0.753"><path
             d="m 0,0 -1111.42,-555.39 -67.861,-33.91 21.191,33.91 35.149,56.23 998.9,499.16 h -91.679 l -865.59,-432.55 56.35,90.15 L -339.771,0 h -91.68 l -551.87,-275.78 56.34,90.14 0.011,0.01 v 0.01 L -555.501,0 H -647.17 L -885.331,-119 -810.96,0 h -66.05 l -104.39,-167.02 -41.641,-66.62 -56.339,-90.14 -41.63,-66.62 -0.011,-0.01 -56.33,-90.12 v -0.01 h -0.01 v -0.01 l -41.629,-66.6 v -0.01 l -0.01,-0.01 -5.14,-8.22 -29.7,-47.51 -21.49,-34.39 v -0.01 h -0.01 v -0.01 l -18.68,-29.88 -22.961,-36.741 -6.729,-10.769 -40.181,-64.281 -9.43,-15.089 -20.269,-32.42 -21.37,-34.201 -18.81,-30.089 -3.31,-5.301 -20.031,-32.049 -2.88,-4.6 -11.309,-18.1 -19.68,-31.49 -21.96,-35.13 -1.55,-0.78 0.599,-0.74 -30.999,-49.591 -22.9,-36.659 -1.5,-2.39 -29.501,-47.201 -12.129,-19.409 -10.77,-17.231 -31.001,-49.599 -14.58,-23.32 -0.01,-0.01 v -0.01 l -8.319,-13.311 -31.001,-49.59 -2.3,-3.69 -20.599,-32.959 -31.001,-49.591 -16.539,-26.47 h 38.33 27.73 l 19.03,30.46 25.08,-30.46 h 53.08 l -55.25,67.099 30.99,49.59 96.09,-116.689 h 53.08 l -126.261,153.349 2.301,3.67 0.01,0.011 v 0.01 l 47.109,23.531 148.671,-180.571 h 53.079 l -44.9,54.53 -39.119,47.51 -80.131,97.32 50.891,25.43 20.119,-24.429 28.021,-34.031 52.93,-64.29 39.119,-47.51 44.9,-54.53 h 53.091 l -44.901,54.53 -39.12,47.51 -52.929,64.29 -39.11,47.5 -24.51,29.759 50.899,25.431 45.44,-55.19 39.111,-47.5 52.94,-64.29 39.109,-47.51 44.901,-54.53 h 53.08 l -44.901,54.53 -39.12,47.51 -52.929,64.29 -39.11,47.5 -52.94,64.29 -7.98,9.69 50.89,25.43 28.92,-35.12 52.93,-64.29 39.12,-47.5 52.93,-64.29 39.119,-47.51 44.901,-54.53 h 53.08 l -44.9,54.53 H 36.629 v 47.51 H -1073.25 l -52.931,64.29 H 36.629 v 47.5 H -1165.29 l -52.941,64.29 H 36.629 v 47.51 H -1257.35 l -5.271,6.401 115.84,57.889 H 36.629 v 47.5 h -1088.36 l 128.661,64.289 H 36.629 v 47.511 H -828 l 128.649,64.29 h 735.98 v 47.509 h -640.9 l 128.631,64.281 H 36.629 v 47.51 H -380.56 l 128.649,64.29 h 288.54 v 47.51 H -156.83 l 193.459,96.675 v 45.8 l -285.12,-142.475 -95.079,-47.51 -128.65,-64.29 -95.071,-47.51 -128.64,-64.281 -95.069,-47.509 -128.66,-64.29 -95.071,-47.511 -128.65,-64.289 -95.059,-47.5 -50.9,-25.44 -37.611,-18.791 -40.139,-20.059 -10.741,-5.37 -37.61,-18.791 -41.67,-20.818 -9.219,-4.611 -37.62,-18.8 -50.89,-25.43 -6.401,7.77 31.001,49.6 15.379,24.601 0.011,0.01 12.35,6.17 50.889,25.429 37.61,18.8 50.89,25.431 0.611,0.3 37,18.49 58.05,29.01 128.649,64.289 95.081,47.511 128.65,64.29 95.079,47.509 128.63,64.281 95.071,47.51 128.66,64.29 95.07,47.51 409.189,204.475 v 45.81 l -500.849,-250.285 -95.08,-47.51 -128.651,-64.29 -95.07,-47.51 -128.639,-64.281 -95.071,-47.509 -128.649,-64.29 -95.08,-47.511 -121.77,-60.849 -6.881,-3.44 -30.719,-15.35 -50.891,-25.43 -13.449,-6.72 -19.051,-9.51 16.11,25.78 3.68,5.88 15.84,25.35 15.15,24.24 5.561,8.89 28.49,14.24 33.859,16.919 95.08,47.511 128.651,64.29 95.08,47.509 128.63,64.281 95.07,47.51 128.659,64.29 95.071,47.51 624.919,312.285 v 45.81 l -716.59,-358.095 -95.079,-47.51 -128.651,-64.29 -95.079,-47.51 -128.631,-64.281 -95.08,-47.509 -128.649,-64.29 h -16.58 l 40.179,64.29 8.631,13.8 67.459,33.709 128.631,64.281 95.079,47.51 128.651,64.29 95.07,47.51 840.639,420.075 v 45.82 l -932.32,-465.895 -95.069,-47.51 -128.66,-64.29 -95.07,-47.51 -62.771,-31.37 19.6,31.37 29.701,47.51 7.04,11.26 0.01,0.01 v 0.01 l 106.1,53.01 95.08,47.51 L 36.629,-27.505 V 0 Z"
             style="opacity:0.15800003;fill:#adccc7;fill-opacity:1;fill-rule:nonzero;stroke:none"
             id="path4560"
             inkscape:connector-curvature="0" /></g><g
           id="g4550"
           transform="matrix(0.58749278,0,0,0.58749278,-4315.0066,2316.027)"
           style="opacity:0.11300001;fill:#adccc7;fill-opacity:1"><path
             d="m 0,0 -245.611,-392.95 -0.01,-0.01 -41.619,-66.61 -56.351,-90.14 -0.009,-0.01 -41.631,-66.62 -40.68,-65.08 -15.66,-25.06 -7.239,-11.59 -31.001,-49.59 -3.38,-5.43 -0.01,-0.01 -19.509,-31.209 -31.001,-49.591 -5.82,-9.331 -0.009,-0.009 -17.08,-27.32 -24.56,-39.3 -6.441,-10.291 -22.899,-36.639 -27.01,-43.21 -0.01,-0.01 -3.98,-6.38 -22.9,-36.65 -14.751,-23.59 -16.249,-26 -22.911,-36.65 -17.17,-27.48 -13.82,-22.12 -22.91,-36.639 -4.91,-7.861 -26.09,-41.74 -22.91,-36.65 -7.35,-11.77 -41.629,-66.611 -24.911,-39.849 h 66.06 l 45.39,72.62 9.51,15.23 13.391,21.42 v 0.011 l 28.25,45.179 2.749,4.41 22.911,36.65 30.69,49.1 0.499,0.25 -0.19,0.24 22.901,36.649 18.429,29.481 12.57,20.109 22.901,36.651 20.849,33.37 0.01,0.01 10.14,16.22 22.9,36.64 8.6,13.76 22.401,35.84 22.909,36.65 11.03,17.649 19.971,31.942 21.679,34.679 0.011,0.009 1.999,1 -0.79,0.961 31.001,49.59 22.909,36.65 1.2,1.931 41.64,66.619 56.341,90.14 41.629,66.621 0.01,0.009 56.34,90.14 41.641,66.62 L 66.049,0 Z"
             style="fill:#adccc7;fill-opacity:1;fill-rule:nonzero;stroke:none"
             id="path4552"
             inkscape:connector-curvature="0" /></g><g
           transform="matrix(0.58749278,0,0,0.58749278,-4226.0014,2316.027)"
           id="g5195"
           style="opacity:0.12300002;fill:#adccc7;fill-opacity:1"><path
             inkscape:connector-curvature="0"
             id="path5193"
             style="fill:#adccc7;fill-opacity:1;fill-rule:nonzero;stroke:none"
             d="m 0,0 -245.611,-392.95 -0.01,-0.01 -41.619,-66.61 -56.351,-90.14 -0.009,-0.01 -41.631,-66.62 -40.68,-65.08 -15.66,-25.06 -7.239,-11.59 -31.001,-49.59 -3.38,-5.43 -0.01,-0.01 -19.509,-31.209 -31.001,-49.591 -5.82,-9.331 -0.009,-0.009 -17.08,-27.32 -24.56,-39.3 -6.441,-10.291 -22.899,-36.639 -27.01,-43.21 -0.01,-0.01 -3.98,-6.38 -22.9,-36.65 -14.751,-23.59 -16.249,-26 -22.911,-36.65 -17.17,-27.48 -13.82,-22.12 -22.91,-36.639 -4.91,-7.861 -26.09,-41.74 -22.91,-36.65 -7.35,-11.77 -41.629,-66.611 -24.911,-39.849 h 66.06 l 45.39,72.62 9.51,15.23 13.391,21.42 v 0.011 l 28.25,45.179 2.749,4.41 22.911,36.65 30.69,49.1 0.499,0.25 -0.19,0.24 22.901,36.649 18.429,29.481 12.57,20.109 22.901,36.651 20.849,33.37 0.01,0.01 10.14,16.22 22.9,36.64 8.6,13.76 22.401,35.84 22.909,36.65 11.03,17.649 19.971,31.942 21.679,34.679 0.011,0.009 1.999,1 -0.79,0.961 31.001,49.59 22.909,36.65 1.2,1.931 41.64,66.619 56.341,90.14 41.629,66.621 0.01,0.009 56.34,90.14 41.641,66.62 L 66.049,0 Z" /></g></g></g></g></svg>