<?xml version="1.0" encoding="UTF-8" standalone="no"?>
<!-- Created with Inkscape (http://www.inkscape.org/) -->

<svg
   xmlns:dc="http://purl.org/dc/elements/1.1/"
   xmlns:cc="http://creativecommons.org/ns#"
   xmlns:rdf="http://www.w3.org/1999/02/22-rdf-syntax-ns#"
   xmlns:svg="http://www.w3.org/2000/svg"
   xmlns="http://www.w3.org/2000/svg"
   xmlns:sodipodi="http://sodipodi.sourceforge.net/DTD/sodipodi-0.dtd"
   xmlns:inkscape="http://www.inkscape.org/namespaces/inkscape"
   width="220"
   height="100"
   viewBox="0 0 58.208332 26.458335"
   version="1.1"
   id="svg17388"
   inkscape:version="0.92.5 (2060ec1f9f, 2020-04-08)"
   sodipodi:docname="click.svg">
  <defs
     id="defs17382">
    <inkscape:path-effect
       effect="powerstroke"
       id="path-effect17941"
       is_visible="true"
       offset_points="0,0.13229166"
       sort_points="true"
       interpolator_type="CubicBezierJohan"
       interpolator_beta="0.2"
       start_linecap_type="zerowidth"
       linejoin_type="extrp_arc"
       miter_limit="4"
       end_linecap_type="zerowidth" />
  </defs>
  <sodipodi:namedview
     id="base"
     pagecolor="#ffffff"
     bordercolor="#666666"
     borderopacity="1.0"
     inkscape:pageopacity="0.0"
     inkscape:pageshadow="2"
     inkscape:zoom="2.8607229"
     inkscape:cx="140.65964"
     inkscape:cy="48.195567"
     inkscape:document-units="px"
     inkscape:current-layer="text17935"
     showgrid="false"
     inkscape:showpageshadow="false"
     units="px"
     inkscape:snap-global="true"
     inkscape:snap-bbox="true"
     inkscape:bbox-nodes="true"
     inkscape:pagecheckerboard="true" />
  <metadata
     id="metadata17385">
    <rdf:RDF>
      <cc:Work
         rdf:about="">
        <dc:format>image/svg+xml</dc:format>
        <dc:type
           rdf:resource="http://purl.org/dc/dcmitype/StillImage" />
        <dc:title></dc:title>
      </cc:Work>
    </rdf:RDF>
  </metadata>
  <g
     inkscape:label="Layer 1"
     inkscape:groupmode="layer"
     id="layer1"
     transform="translate(0,-270.54167)">
    <g
       id="g17996"
       transform="matrix(1.7126158,0,0,1.7126158,3.8669604,-213.28982)">
      <g
         transform="matrix(-0.78649217,0,0,0.78649217,-13.844039,71.500578)"
         id="g17983"
         style="fill:none;stroke:#ffffff">
        <g
           id="g18037">
          <g
             id="g18052"
             transform="translate(1.8660865,-4.3718331e-6)">
            <g
               id="g18109"
               transform="translate(-1.432058e-8,-4.3064921)">
              <g
                 aria-label="&lt;CLICK"
                 transform="scale(-1,1)"
                 style="font-style:normal;font-variant:normal;font-weight:300;font-stretch:normal;font-size:4.48449707px;line-height:125%;font-family:Bahnschrift;-inkscape-font-specification:'Bahnschrift, Light';font-variant-ligatures:normal;font-variant-caps:normal;font-variant-numeric:normal;font-feature-settings:normal;text-align:start;letter-spacing:0px;word-spacing:0px;writing-mode:lr-tb;text-anchor:start;fill:#ffffff;fill-opacity:1;stroke:none;stroke-width:0.03315965px;stroke-linecap:butt;stroke-linejoin:miter;stroke-opacity:1"
                 id="text17935">
                <g
                   id="g18184"
                   transform="translate(1.8493136,-3.1501766)">
                  <path
                     id="path18115"
                     style="font-style:normal;font-variant:normal;font-weight:300;font-stretch:normal;font-size:4.48449707px;font-family:Bahnschrift;-inkscape-font-specification:'Bahnschrift, Light';font-variant-ligatures:normal;font-variant-caps:normal;font-variant-numeric:normal;font-feature-settings:normal;text-align:start;letter-spacing:0.0804198px;writing-mode:lr-tb;text-anchor:start;fill:#ffffff;stroke:none;stroke-width:0.03315965px"
                     d="m 31.412332,283.47245 q -0.330644,0 -0.582459,-0.14671 -0.249625,-0.14671 -0.387576,-0.41604 -0.137951,-0.26933 -0.137951,-0.62406 v -0.87369 q 0,-0.35473 0.137951,-0.62407 0.137951,-0.26933 0.387576,-0.41604 0.251815,-0.1489 0.582459,-0.1489 0.273712,0 0.50363,0.11168 0.229918,0.11167 0.383197,0.3175 0.155468,0.20364 0.210211,0.47298 v 0 h -0.315317 v 0 q -0.05255,-0.17956 -0.172985,-0.31751 -0.118244,-0.13795 -0.278092,-0.21459 -0.159848,-0.0766 -0.330644,-0.0766 -0.236487,0 -0.416042,0.11168 -0.179555,0.11167 -0.278092,0.31531 -0.09854,0.20145 -0.09854,0.4686 v 0.87369 q 0,0.26714 0.09854,0.47078 0.09854,0.20145 0.278092,0.31313 0.179555,0.10948 0.416042,0.10948 0.170796,0 0.330644,-0.0723 0.159848,-0.0723 0.278092,-0.21021 0.120433,-0.13795 0.172985,-0.32626 v 0 h 0.315317 v 0 q -0.05474,0.26933 -0.210211,0.47516 -0.155469,0.20364 -0.385387,0.31532 -0.229918,0.11167 -0.50144,0.11167 z"
                     inkscape:connector-curvature="0" />
                  <path
                     id="path18117"
                     style="font-style:normal;font-variant:normal;font-weight:300;font-stretch:normal;font-size:4.48449707px;font-family:Bahnschrift;-inkscape-font-specification:'Bahnschrift, Light';font-variant-ligatures:normal;font-variant-caps:normal;font-variant-numeric:normal;font-feature-settings:normal;text-align:start;letter-spacing:0.0804198px;writing-mode:lr-tb;text-anchor:start;fill:#ffffff;stroke:none;stroke-width:0.03315965px"
                     d="m 33.183197,280.25579 h 0.315316 v 3.18382 h -0.315316 z m 0.223349,2.8904 h 1.821827 v 0.29342 h -1.821827 z"
                     inkscape:connector-curvature="0" />
                  <path
                     id="path18119"
                     style="font-style:normal;font-variant:normal;font-weight:300;font-stretch:normal;font-size:4.48449707px;font-family:Bahnschrift;-inkscape-font-specification:'Bahnschrift, Light';font-variant-ligatures:normal;font-variant-caps:normal;font-variant-numeric:normal;font-feature-settings:normal;text-align:start;letter-spacing:0.0804198px;writing-mode:lr-tb;text-anchor:start;fill:#ffffff;stroke:none;stroke-width:0.03315965px"
                     d="M 36.219706,283.43961 H 35.90439 v -3.18382 h 0.315316 z"
                     inkscape:connector-curvature="0" />
                  <path
                     id="path18121"
                     style="font-style:normal;font-variant:normal;font-weight:300;font-stretch:normal;font-size:4.48449707px;font-family:Bahnschrift;-inkscape-font-specification:'Bahnschrift, Light';font-variant-ligatures:normal;font-variant-caps:normal;font-variant-numeric:normal;font-feature-settings:normal;text-align:start;letter-spacing:0.0804198px;writing-mode:lr-tb;text-anchor:start;fill:#ffffff;stroke:none;stroke-width:0.03315965px"
                     d="m 38.196403,283.47245 q -0.330645,0 -0.58246,-0.14671 -0.249625,-0.14671 -0.387576,-0.41604 -0.137951,-0.26933 -0.137951,-0.62406 v -0.87369 q 0,-0.35473 0.137951,-0.62407 0.137951,-0.26933 0.387576,-0.41604 0.251815,-0.1489 0.58246,-0.1489 0.273712,0 0.50363,0.11168 0.229918,0.11167 0.383196,0.3175 0.155469,0.20364 0.210211,0.47298 v 0 h -0.315316 v 0 q -0.05255,-0.17956 -0.172986,-0.31751 -0.118244,-0.13795 -0.278091,-0.21459 -0.159848,-0.0766 -0.330644,-0.0766 -0.236488,0 -0.416043,0.11168 -0.179555,0.11167 -0.278091,0.31531 -0.09854,0.20145 -0.09854,0.4686 v 0.87369 q 0,0.26714 0.09854,0.47078 0.09854,0.20145 0.278091,0.31313 0.179555,0.10948 0.416043,0.10948 0.170796,0 0.330644,-0.0723 0.159847,-0.0723 0.278091,-0.21021 0.120433,-0.13795 0.172986,-0.32626 v 0 h 0.315316 v 0 q -0.05474,0.26933 -0.210211,0.47516 -0.155468,0.20364 -0.385386,0.31532 -0.229918,0.11167 -0.50144,0.11167 z"
                     inkscape:connector-curvature="0" />
                  <path
                     id="path18123"
                     style="font-style:normal;font-variant:normal;font-weight:300;font-stretch:normal;font-size:4.48449707px;font-family:Bahnschrift;-inkscape-font-specification:'Bahnschrift, Light';font-variant-ligatures:normal;font-variant-caps:normal;font-variant-numeric:normal;font-feature-settings:normal;text-align:start;letter-spacing:0.0804198px;writing-mode:lr-tb;text-anchor:start;fill:#ffffff;stroke:none;stroke-width:0.03315965px"
                     d="m 40.120546,282.46957 1.745188,-2.21378 h 0.407283 l -2.021089,2.45684 z m -0.153279,-2.21378 h 0.315316 v 3.18382 h -0.315316 z m 1.051054,1.48461 0.181745,-0.32626 1.206522,2.02547 h -0.376627 z"
                     inkscape:connector-curvature="0" />
                </g>
                <path
                   style="fill:#f9c66d;stroke:#999999;stroke-width:0.00043904px;fill-opacity:1"
                   d="m 23.820083,280.88263 c -0.0309,0.0682 -0.10089,0.1134 -0.1769,0.11445 -0.0424,5.9e-4 -0.83625,-0.28156 -3.24694,-1.15397 -1.75497,-0.63512 -3.20874,-1.16492 -3.23058,-1.17734 -0.0442,-0.0252 -0.0993,-0.12176 -0.0993,-0.17424 0,-0.0524 0.055,-0.14906 0.0993,-0.17432 0.0219,-0.0125 1.47561,-0.54228 3.23058,-1.17736 2.44738,-0.88566 3.20418,-1.15452 3.24801,-1.15388 0.12734,0.002 0.22316,0.12636 0.19068,0.24781 -0.009,0.0346 -0.255,0.43036 -0.63837,1.02796 -0.34281,0.53438 -0.6351,0.9879 -0.64952,1.0078 -0.0809,0.11169 -0.25989,0.10343 -0.34017,-0.0157 -0.0358,-0.0531 -0.0397,-0.14184 -0.009,-0.20142 0.0115,-0.0223 0.22347,-0.35626 0.47095,-0.74207 0.24747,-0.38582 0.44805,-0.70323 0.44572,-0.70535 -0.002,-0.002 -1.17648,0.41998 -2.60922,0.93802 -1.70864,0.6178 -2.59906,0.94584 -2.58778,0.95338 0.0229,0.0153 5.19154,1.88642 5.19714,1.88141 0.002,-0.002 -0.19798,-0.31913 -0.4453,-0.70442 -0.24732,-0.38529 -0.45931,-0.71916 -0.47109,-0.74194 -0.0492,-0.0951 -0.0129,-0.21661 0.0811,-0.2715 0.0773,-0.0452 0.19984,-0.0266 0.25646,0.0387 0.0323,0.0373 1.25769,1.95043 1.28527,2.00659 0.0303,0.0618 0.0301,0.10864 -0.001,0.17734 z"
                   id="path18173"
                   inkscape:connector-curvature="0" />
                <path
                   inkscape:connector-curvature="0"
                   id="path18175"
                   d="m 52.589476,281.08862 c 0.0309,0.0682 0.10089,0.1134 0.1769,0.11445 0.0424,5.9e-4 0.83625,-0.28156 3.24694,-1.15397 1.75497,-0.63512 3.20874,-1.16492 3.23058,-1.17734 0.0442,-0.0252 0.0993,-0.12176 0.0993,-0.17424 0,-0.0524 -0.055,-0.14906 -0.0993,-0.17432 -0.0219,-0.0125 -1.47561,-0.54228 -3.23058,-1.17736 -2.44738,-0.88566 -3.20418,-1.15452 -3.24801,-1.15388 -0.12734,0.002 -0.22316,0.12636 -0.19068,0.24781 0.009,0.0346 0.255,0.43036 0.63837,1.02796 0.34281,0.53438 0.6351,0.9879 0.64952,1.0078 0.0809,0.11169 0.25989,0.10343 0.34017,-0.0157 0.0358,-0.0531 0.0397,-0.14184 0.009,-0.20142 -0.0115,-0.0223 -0.22347,-0.35626 -0.47095,-0.74207 -0.24747,-0.38582 -0.44805,-0.70323 -0.44572,-0.70535 0.002,-0.002 1.17648,0.41998 2.60922,0.93802 1.70864,0.6178 2.59906,0.94584 2.58778,0.95338 -0.0229,0.0153 -5.19154,1.88642 -5.19714,1.88141 -0.002,-0.002 0.19798,-0.31913 0.4453,-0.70442 0.24732,-0.38529 0.45931,-0.71916 0.47109,-0.74194 0.0492,-0.0951 0.0129,-0.21661 -0.0811,-0.2715 -0.0773,-0.0452 -0.19984,-0.0266 -0.25646,0.0387 -0.0323,0.0373 -1.25769,1.95043 -1.28527,2.00659 -0.0303,0.0618 -0.0301,0.10864 10e-4,0.17734 z"
                   style="fill:#f9c66d;stroke:#999999;stroke-width:0.00043904px;fill-opacity:1" />
                <path
                   style="fill:#f9c66d;stroke:#999999;stroke-width:0.00043904px;fill-opacity:1"
                   d="m 35.813675,285.09505 c -0.0682,0.0309 -0.1134,0.10089 -0.11445,0.1769 -5.9e-4,0.0424 0.28156,0.83625 1.15397,3.24694 0.63512,1.75497 1.16492,3.20874 1.17734,3.23058 0.0252,0.0442 0.12176,0.0993 0.17424,0.0993 0.0524,0 0.14906,-0.055 0.17432,-0.0993 0.0125,-0.0219 0.54228,-1.47561 1.17736,-3.23058 0.88566,-2.44738 1.15452,-3.20418 1.15388,-3.24801 -0.002,-0.12734 -0.12636,-0.22316 -0.24781,-0.19068 -0.0346,0.009 -0.43036,0.255 -1.02796,0.63837 -0.53438,0.34281 -0.9879,0.6351 -1.0078,0.64952 -0.11169,0.0809 -0.10343,0.25989 0.0157,0.34017 0.0531,0.0358 0.14184,0.0397 0.20142,0.009 0.0223,-0.0115 0.35626,-0.22347 0.74207,-0.47095 0.38582,-0.24747 0.70323,-0.44805 0.70535,-0.44572 0.002,0.002 -0.41998,1.17648 -0.93802,2.60922 -0.6178,1.70864 -0.94584,2.59906 -0.95338,2.58778 -0.0153,-0.0229 -1.88642,-5.19154 -1.88141,-5.19714 0.002,-0.002 0.31913,0.19798 0.70442,0.4453 0.38529,0.24732 0.71916,0.45931 0.74194,0.47109 0.0951,0.0492 0.21661,0.0129 0.2715,-0.0811 0.0452,-0.0773 0.0266,-0.19984 -0.0387,-0.25646 -0.0373,-0.0323 -1.95043,-1.25769 -2.00659,-1.28527 -0.0618,-0.0303 -0.10864,-0.0301 -0.17734,10e-4 z"
                   id="path18177"
                   inkscape:connector-curvature="0" />
              </g>
            </g>
          </g>
        </g>
      </g>
    </g>
  </g>
</svg>
